<?xml version="1.0" encoding="UTF-8"?>
<svg width="1334px" height="496px" viewBox="0 0 1334 496" version="1.1" xmlns="http://www.w3.org/2000/svg" xmlns:xlink="http://www.w3.org/1999/xlink">
    <!-- Generator: Sketch 59.1 (86144) - https://sketch.com -->
    <title>Artboard</title>
    <desc>Created with Sketch.</desc>
    <g id="Artboard" stroke="none" stroke-width="1" fill="none" fill-rule="evenodd">
        <path d="M151.40625,15.3574219 L151.40625,50.6601562 L98.2324219,50.6601562 L98.2324219,108.228516 L147.744141,108.228516 L147.744141,144.849609 L98.2324219,144.849609 L98.2324219,213.257812 L151.40625,213.257812 L151.40625,249 L-0.791015625,249 L-0.791015625,15.3574219 L151.40625,15.3574219 Z M293.166016,92.4082031 L275.587891,92.4082031 L275.587891,215.162109 L293.166016,215.162109 L293.166016,92.4082031 Z M384.132812,-1.48828125 L384.132812,249 L304.591797,249 L300.050781,237.574219 C297.511706,240.699234 294.142599,243.335927 289.943359,245.484375 C285.74412,247.632823 281.251977,249.366204 276.466797,250.68457 C271.681617,252.002936 266.872094,252.955075 262.038086,253.541016 C257.204077,254.126956 252.931659,254.419922 249.220703,254.419922 C238.478462,254.419922 229.420935,253.467783 222.047852,251.563477 C214.674768,249.65917 208.595727,247.095719 203.810547,243.873047 C199.025367,240.650375 195.33888,236.963888 192.750977,232.813477 C190.163073,228.663065 188.258795,224.341819 187.038086,219.849609 C185.817377,215.357399 185.109376,210.865257 184.914062,206.373047 C184.718749,201.880837 184.621094,197.68166 184.621094,193.775391 L184.621094,112.769531 C184.621094,108.863262 184.718749,104.664085 184.914062,100.171875 C185.109376,95.679665 185.817377,91.1875225 187.038086,86.6953125 C188.258795,82.2031025 190.163073,77.8818567 192.750977,73.7314453 C195.33888,69.5810339 199.025367,65.9189612 203.810547,62.7451172 C208.595727,59.5712732 214.674768,57.0322361 222.047852,55.1279297 C229.420935,53.2236233 238.478462,52.2714844 249.220703,52.2714844 C255.568391,52.2714844 261.110328,52.6621055 265.84668,53.4433594 C270.583031,54.2246133 274.708967,55.3476489 278.224609,56.8125 C281.740252,58.2773511 284.694324,60.0839736 287.086914,62.2324219 C289.479504,64.3808701 291.505851,66.822252 293.166016,69.5566406 L293.166016,-1.48828125 L384.132812,-1.48828125 Z M558.851562,140.748047 L545.082031,249 L435.951172,249 L400.501953,58.5703125 L485.755859,58.5703125 L498.939453,187.476562 L517.835938,58.5703125 L600.892578,58.5703125 L619.203125,187.476562 L632.679688,58.5703125 L718.226562,58.5703125 L682.777344,249 L573.060547,249 L558.851562,140.748047 Z M831.568359,160.816406 L831.568359,215.162109 L849.146484,215.162109 L849.146484,160.816406 L831.568359,160.816406 Z M860.132812,249 L855.738281,231.568359 C853.003893,235.865256 849.390647,239.673812 844.898438,242.994141 C842.749989,244.458992 840.503918,245.874993 838.160156,247.242188 C835.621081,248.609382 832.789078,249.830073 829.664062,250.904297 C826.539047,251.978521 823.047871,252.833005 819.19043,253.467773 C815.332989,254.102542 811.109398,254.419922 806.519531,254.419922 C795.77729,254.419922 786.670936,253.370128 779.200195,251.270508 C771.729455,249.170888 765.552759,246.412126 760.669922,242.994141 C755.787085,239.576155 752.002943,235.64553 749.317383,231.202148 C746.631823,226.758767 744.629889,222.168969 743.311523,217.432617 C741.993157,212.696265 741.211915,208.008812 740.967773,203.370117 C740.723632,198.731422 740.601562,194.459004 740.601562,190.552734 C740.601562,186.451151 740.723632,182.007836 740.967773,177.222656 C741.211915,172.437476 741.993157,167.627954 743.311523,162.793945 C744.629889,157.959937 746.631823,153.321311 749.317383,148.87793 C752.002943,144.434548 755.787085,140.47951 760.669922,137.012695 C765.552759,133.545881 771.729455,130.78712 779.200195,128.736328 C786.670936,126.685537 795.77729,125.660156 806.519531,125.660156 C812.183622,125.660156 817.261696,125.928708 821.753906,126.46582 C826.246116,127.002932 830.225569,127.710933 833.692383,128.589844 C837.159197,129.468754 840.162097,130.420893 842.701172,131.446289 C845.240247,132.471685 847.388663,133.472651 849.146484,134.449219 L849.146484,92.4082031 L838.306641,92.4082031 L838.306641,113.0625 L748.511719,118.042969 C748.511719,116.480461 748.496094,114.886722 748.464844,113.261722 L748.438477,112.037109 C748.389648,109.986318 748.365234,107.935557 748.365234,105.884766 C748.365234,101.685526 748.731442,97.4131077 749.463867,93.0673828 C750.196293,88.721658 751.685536,84.5713088 753.931641,80.6162109 C756.177746,76.661113 759.40037,72.9502126 763.599609,69.4833984 C767.798849,66.0165842 773.389614,63.0136846 780.37207,60.4746094 C787.354527,57.9355342 795.87495,55.9336011 805.933594,54.46875 C815.992238,53.0038989 828.052664,52.2714844 842.115234,52.2714844 C858.521566,52.2714844 872.315374,53.1503818 883.49707,54.9082031 C894.678767,56.6660244 903.882776,59.009751 911.109375,61.9394531 C918.335974,64.8691553 923.902324,68.262676 927.808594,72.1201172 C931.714863,75.9775583 934.57128,80.0302522 936.37793,84.2783203 C938.184579,88.5263884 939.234374,92.8232205 939.527344,97.1689453 C939.820314,101.51467 939.966797,105.640605 939.966797,109.546875 L939.966797,211.353516 C939.966797,216.041039 940.333004,220.582009 941.06543,224.976562 C941.741515,229.033073 942.521602,232.756691 943.405712,236.14751 L943.628906,236.988281 C944.70313,241.187521 945.972649,245.191387 947.4375,249 L860.132812,249 Z M975.818359,249 L975.818359,58.5703125 L1055.35938,58.5703125 L1059.90039,69.5566406 C1062.34181,66.6269385 1065.56443,64.0879014 1069.56836,61.9394531 C1073.57229,59.7910049 1077.8447,58.0087961 1082.38574,56.5927734 C1086.92678,55.1767507 1091.56541,54.1269565 1096.30176,53.4433594 C1101.03811,52.7597622 1105.40818,52.3691411 1109.41211,52.2714844 L1109.41211,109.986328 L1066.78516,115.845703 L1066.78516,249 L975.818359,249 Z M1245.01953,92.4082031 L1227.44141,92.4082031 L1227.44141,215.162109 L1245.01953,215.162109 L1245.01953,92.4082031 Z M1335.98633,-1.48828125 L1335.98633,249 L1256.44531,249 L1251.9043,237.574219 C1249.36522,240.699234 1245.99611,243.335927 1241.79688,245.484375 C1237.59764,247.632823 1233.10549,249.366204 1228.32031,250.68457 C1223.53513,252.002936 1218.72561,252.955075 1213.8916,253.541016 C1209.05759,254.126956 1204.78517,254.419922 1201.07422,254.419922 C1190.33198,254.419922 1181.27445,253.467783 1173.90137,251.563477 C1166.52828,249.65917 1160.44924,247.095719 1155.66406,243.873047 C1150.87888,240.650375 1147.1924,236.963888 1144.60449,232.813477 C1142.01659,228.663065 1140.11231,224.341819 1138.8916,219.849609 C1137.67089,215.357399 1136.96289,210.865257 1136.76758,206.373047 C1136.57226,201.880837 1136.47461,197.68166 1136.47461,193.775391 L1136.47461,112.769531 C1136.47461,108.863262 1136.57226,104.664085 1136.76758,100.171875 C1136.96289,95.679665 1137.67089,91.1875225 1138.8916,86.6953125 C1140.11231,82.2031025 1142.01659,77.8818567 1144.60449,73.7314453 C1147.1924,69.5810339 1150.87888,65.9189612 1155.66406,62.7451172 C1160.44924,59.5712732 1166.52828,57.0322361 1173.90137,55.1279297 C1181.27445,53.2236233 1190.33198,52.2714844 1201.07422,52.2714844 C1207.42191,52.2714844 1212.96384,52.6621055 1217.7002,53.4433594 C1222.43655,54.2246133 1226.56248,55.3476489 1230.07812,56.8125 C1233.59377,58.2773511 1236.54784,60.0839736 1238.94043,62.2324219 C1241.33302,64.3808701 1243.35937,66.822252 1245.01953,69.5566406 L1245.01953,-1.48828125 L1335.98633,-1.48828125 Z" id="Edward" fill="#444444" fill-rule="nonzero"></path>
        <path d="M77.0908203,367.470703 C77.0908203,368.710293 78.4272327,369.581866 81.1000977,370.085449 C83.518404,370.541072 86.6501423,370.964979 90.4953914,371.357181 L94.2807389,371.72988 C98.0516933,372.105598 102.218992,372.545245 106.782715,373.048828 C112.399605,373.668623 118.13262,374.675774 123.981934,376.070312 C129.831247,377.464851 135.564262,379.40168 141.181152,381.880859 C146.798042,384.360038 151.814431,387.652649 156.230469,391.758789 C160.646506,395.864929 164.190905,400.939423 166.86377,406.982422 C169.536634,413.025421 170.873047,420.3079 170.873047,428.830078 C170.873047,434.950551 170.679364,440.974091 170.291992,446.900879 C169.90462,452.827666 168.858732,458.444472 167.154297,463.751465 C165.449861,469.058458 162.85451,473.958636 159.368164,478.452148 C155.881819,482.94566 151.039745,486.81932 144.841797,490.073242 C138.643849,493.327165 130.896531,495.88378 121.599609,497.743164 C112.302688,499.602548 100.952866,500.532227 87.5498047,500.532227 C74.1467429,500.532227 62.6419751,499.776863 53.0351562,498.266113 C43.4283374,496.755364 35.3323897,494.760429 28.7470703,492.28125 C22.1617509,489.802071 16.8742061,486.935563 12.8842773,483.681641 C8.89434854,480.427718 5.83415779,477.038266 3.70361328,473.513184 C1.57306877,469.988101 0.17855147,466.443703 -0.479980469,462.879883 C-1.13851241,459.316063 -1.46777344,455.984716 -1.46777344,452.885742 L-1.46777344,434.05957 L77.0908203,434.05957 L77.0908203,468.922852 L92.3144531,468.922852 L92.3144531,431.735352 C92.3144531,430.573236 90.9780407,429.585453 88.3051758,428.771973 L87.5177848,428.537969 C84.9492814,427.791951 81.6673377,426.998377 77.671875,426.157227 L62.5644531,423.019531 C56.9863002,421.93489 51.2726529,420.521005 45.4233398,418.777832 C39.5740267,417.034659 33.8410112,414.904147 28.2241211,412.38623 C22.607231,409.868314 17.5908424,406.750019 13.1748047,403.03125 C8.75876698,399.312481 5.21436883,394.954615 2.54150391,389.95752 C-0.131361021,384.960424 -1.46777344,379.091831 -1.46777344,372.351562 C-1.46777344,363.984333 -0.944829448,356.527539 0.101074219,349.980957 C1.14697789,343.434375 2.9675977,337.720728 5.56298828,332.839844 C8.15837886,327.95896 11.6253038,323.833513 15.9638672,320.463379 C20.3024305,317.093245 25.7449217,314.362315 32.2915039,312.270508 C38.8380861,310.1787 46.6241411,308.667973 55.6499023,307.738281 C64.6756636,306.808589 75.1539117,306.34375 87.0849609,306.34375 C99.6358049,306.34375 110.268999,307.02164 118.984863,308.377441 C127.700727,309.733242 134.963838,311.553862 140.774414,313.839355 C146.58499,316.124849 151.13654,318.758937 154.429199,321.741699 C157.721859,324.724462 160.181632,327.881494 161.808594,331.212891 C163.435555,334.544287 164.442706,337.914371 164.830078,341.323242 C165.21745,344.732113 165.411133,347.985987 165.411133,351.084961 L165.411133,364.914062 L92.3144531,364.914062 L92.3144531,337.488281 L77.0908203,337.488281 L77.0908203,367.470703 Z M258.298828,426.041016 L258.298828,469.155273 L272.244141,469.155273 L272.244141,426.041016 L258.298828,426.041016 Z M280.959961,496 L277.473633,482.170898 C275.304351,485.57977 272.437843,488.601224 268.874023,491.235352 C267.169588,492.397467 265.387705,493.520828 263.52832,494.605469 C261.513987,495.69011 259.267265,496.658524 256.788086,497.510742 C254.308907,498.36296 251.539241,499.04085 248.479004,499.544434 C245.418767,500.048017 242.068052,500.299805 238.426758,500.299805 C229.90458,500.299805 222.680205,499.466968 216.753418,497.80127 C210.826631,496.135571 205.926452,493.946954 202.052734,491.235352 C198.179017,488.523749 195.176931,485.405454 193.046387,481.880371 C190.915842,478.355288 189.327642,474.714049 188.281738,470.956543 C187.235835,467.199037 186.616049,463.480324 186.422363,459.800293 C186.228677,456.120262 186.131836,452.73081 186.131836,449.631836 C186.131836,446.377913 186.228677,442.852884 186.422363,439.056641 C186.616049,435.260398 187.235835,431.444843 188.281738,427.609863 C189.327642,423.774883 190.915842,420.094907 193.046387,416.569824 C195.176931,413.044741 198.179017,409.907078 202.052734,407.156738 C205.926452,404.406399 210.826631,402.217782 216.753418,400.59082 C222.680205,398.963859 229.90458,398.150391 238.426758,398.150391 C242.92027,398.150391 246.948875,398.363442 250.512695,398.789551 C254.076515,399.21566 257.233547,399.77734 259.983887,400.474609 C262.734226,401.171878 265.116526,401.927242 267.130859,402.740723 C269.145192,403.554203 270.849602,404.348303 272.244141,405.123047 L272.244141,371.770508 L263.644531,371.770508 L263.644531,388.15625 L192.407227,392.107422 C192.407227,390.945307 192.396332,389.761415 192.374542,388.555727 L192.349121,387.342773 C192.310384,385.715812 192.291016,384.088875 192.291016,382.461914 C192.291016,379.130517 192.58154,375.741065 193.162598,372.293457 C193.743655,368.845849 194.925121,365.553238 196.707031,362.415527 C198.488941,359.277816 201.045556,356.333835 204.376953,353.583496 C207.70835,350.833157 212.14369,348.450856 217.683105,346.436523 C223.222521,344.42219 229.982056,342.83399 237.961914,341.671875 C245.941772,340.50976 255.50971,339.928711 266.666016,339.928711 C279.681706,339.928711 290.624793,340.62597 299.495605,342.020508 C308.366418,343.415046 315.668266,345.274402 321.401367,347.598633 C327.134469,349.922863 331.55044,352.615056 334.649414,355.675293 C337.748388,358.73553 340.014479,361.950667 341.447754,365.320801 C342.881029,368.690935 343.713866,372.099755 343.946289,375.547363 C344.178712,378.994972 344.294922,382.268214 344.294922,385.367188 L344.294922,466.133789 C344.294922,469.852558 344.585446,473.455061 345.166504,476.941406 C345.69914,480.137223 346.313143,483.0726 347.008527,485.74761 L347.200195,486.470703 C348.052413,489.8021 349.059565,492.978501 350.22168,496 L280.959961,496 Z M434.625977,426.041016 L434.625977,469.155273 L448.571289,469.155273 L448.571289,426.041016 L434.625977,426.041016 Z M457.287109,496 L453.800781,482.170898 C451.6315,485.57977 448.764992,488.601224 445.201172,491.235352 C443.496736,492.397467 441.714853,493.520828 439.855469,494.605469 C437.841136,495.69011 435.594413,496.658524 433.115234,497.510742 C430.636055,498.36296 427.866389,499.04085 424.806152,499.544434 C421.745916,500.048017 418.3952,500.299805 414.753906,500.299805 C406.231728,500.299805 399.007354,499.466968 393.080566,497.80127 C387.153779,496.135571 382.2536,493.946954 378.379883,491.235352 C374.506166,488.523749 371.50408,485.405454 369.373535,481.880371 C367.242991,478.355288 365.65479,474.714049 364.608887,470.956543 C363.562983,467.199037 362.943198,463.480324 362.749512,459.800293 C362.555826,456.120262 362.458984,452.73081 362.458984,449.631836 C362.458984,446.377913 362.555826,442.852884 362.749512,439.056641 C362.943198,435.260398 363.562983,431.444843 364.608887,427.609863 C365.65479,423.774883 367.242991,420.094907 369.373535,416.569824 C371.50408,413.044741 374.506166,409.907078 378.379883,407.156738 C382.2536,404.406399 387.153779,402.217782 393.080566,400.59082 C399.007354,398.963859 406.231728,398.150391 414.753906,398.150391 C419.247418,398.150391 423.276024,398.363442 426.839844,398.789551 C430.403664,399.21566 433.560696,399.77734 436.311035,400.474609 C439.061374,401.171878 441.443675,401.927242 443.458008,402.740723 C445.472341,403.554203 447.176751,404.348303 448.571289,405.123047 L448.571289,371.770508 L439.97168,371.770508 L439.97168,388.15625 L368.734375,392.107422 C368.734375,390.945307 368.72348,389.761415 368.701691,388.555727 L368.67627,387.342773 C368.637532,385.715812 368.618164,384.088875 368.618164,382.461914 C368.618164,379.130517 368.908689,375.741065 369.489746,372.293457 C370.070804,368.845849 371.25227,365.553238 373.03418,362.415527 C374.81609,359.277816 377.372705,356.333835 380.704102,353.583496 C384.035498,350.833157 388.470838,348.450856 394.010254,346.436523 C399.54967,344.42219 406.309205,342.83399 414.289062,341.671875 C422.26892,340.50976 431.836858,339.928711 442.993164,339.928711 C456.008854,339.928711 466.951941,340.62597 475.822754,342.020508 C484.693566,343.415046 491.995414,345.274402 497.728516,347.598633 C503.461617,349.922863 507.877589,352.615056 510.976562,355.675293 C514.075536,358.73553 516.341627,361.950667 517.774902,365.320801 C519.208178,368.690935 520.041014,372.099755 520.273438,375.547363 C520.505861,378.994972 520.62207,382.268214 520.62207,385.367188 L520.62207,466.133789 C520.62207,469.852558 520.912595,473.455061 521.493652,476.941406 C522.026288,480.137223 522.640291,483.0726 523.335676,485.74761 L523.527344,486.470703 C524.379562,489.8021 525.386713,492.978501 526.548828,496 L457.287109,496 Z M525.886719,344.925781 L596.426758,344.925781 L609.907227,447.191406 L623.736328,344.925781 L694.392578,344.925781 L651.859375,496 L568.536133,496 L525.886719,344.925781 Z M774.49707,399.893555 L788.442383,399.893555 L788.442383,371.770508 L774.49707,371.770508 L774.49707,399.893555 Z M860.609375,434.291992 L860.609375,454.861328 C860.609375,457.960302 860.454429,461.233544 860.144531,464.681152 C859.834634,468.128761 858.924324,471.518213 857.413574,474.849609 C855.902824,478.181006 853.539892,481.396143 850.324707,484.495117 C847.109522,487.594091 842.57734,490.305652 836.728027,492.629883 C830.878714,494.954113 823.499394,496.81347 814.589844,498.208008 C805.934853,499.562702 795.379143,500.259392 782.922416,500.298097 L781.818359,500.299805 C768.802669,500.299805 757.820846,499.602546 748.872559,498.208008 C739.924272,496.81347 732.506214,494.954113 726.618164,492.629883 C720.730114,490.305652 716.159196,487.594091 712.905273,484.495117 C709.651351,481.396143 707.230314,478.181006 705.64209,474.849609 C704.053866,471.518213 703.104819,468.128761 702.794922,464.681152 C702.485024,461.233544 702.330078,457.960302 702.330078,454.861328 L702.330078,385.134766 C702.330078,382.035792 702.485024,378.781918 702.794922,375.373047 C703.104819,371.964176 704.053866,368.594092 705.64209,365.262695 C707.230314,361.931298 709.651351,358.73553 712.905273,355.675293 C716.159196,352.615056 720.730114,349.922863 726.618164,347.598633 C732.506214,345.274402 739.924272,343.415046 748.872559,342.020508 C757.820846,340.62597 768.802669,339.928711 781.818359,339.928711 C794.756575,339.928711 805.680294,340.62597 814.589844,342.020508 C823.499394,343.415046 830.878714,345.274402 836.728027,347.598633 C842.57734,349.922863 847.109522,352.615056 850.324707,355.675293 C853.539892,358.73553 855.902824,361.931298 857.413574,365.262695 C858.924324,368.594092 859.834634,371.983544 860.144531,375.431152 C860.454429,378.878761 860.609375,382.113266 860.609375,385.134766 L860.609375,423.833008 L774.49707,423.833008 L774.49707,469.155273 L788.442383,469.155273 L788.442383,434.291992 L860.609375,434.291992 Z M963.607422,371.770508 L949.662109,371.770508 L949.662109,469.155273 L963.607422,469.155273 L963.607422,371.770508 Z M1035.77441,297.279297 L1035.77441,496 L972.671875,496 L969.069336,486.935547 C967.055003,489.414726 964.382178,491.506502 961.050781,493.210938 C957.719384,494.915373 954.155618,496.290522 950.359375,497.336426 C946.563132,498.382329 942.747578,499.137693 938.912598,499.602539 C935.077618,500.067385 931.688166,500.299805 928.744141,500.299805 C920.221963,500.299805 913.036325,499.544441 907.187012,498.033691 C901.337699,496.522942 896.514993,494.489271 892.71875,491.932617 C888.922507,489.375964 885.997894,486.451351 883.944824,483.158691 C881.891754,479.866032 880.381027,476.437843 879.412598,472.874023 C878.444168,469.310204 877.882488,465.746437 877.727539,462.182617 C877.57259,458.618797 877.495117,455.28745 877.495117,452.188477 L877.495117,387.923828 C877.495117,384.824854 877.57259,381.493507 877.727539,377.929688 C877.882488,374.365868 878.444168,370.802101 879.412598,367.238281 C880.381027,363.674461 881.891754,360.246273 883.944824,356.953613 C885.997894,353.660954 888.922507,350.755709 892.71875,348.237793 C896.514993,345.719877 901.337699,343.705574 907.187012,342.194824 C913.036325,340.684074 920.221963,339.928711 928.744141,339.928711 C933.779973,339.928711 938.176576,340.238604 941.934082,340.858398 C945.691588,341.478193 948.96483,342.369135 951.753906,343.53125 C954.542983,344.693365 956.886546,346.126619 958.784668,347.831055 C960.682789,349.53549 962.290358,351.47232 963.607422,353.641602 L963.607422,297.279297 L1035.77441,297.279297 Z M1052.31152,496 L1052.31152,344.925781 L1115.41406,344.925781 L1119.0166,353.641602 C1120.95346,351.317371 1123.51008,349.303068 1126.68652,347.598633 C1129.86297,345.894197 1133.25242,344.480312 1136.85498,343.356934 C1140.45754,342.233556 1144.13751,341.400719 1147.89502,340.858398 C1151.65253,340.316078 1155.11945,340.006185 1158.2959,339.928711 L1158.2959,385.71582 L1124.47852,390.364258 L1124.47852,496 L1052.31152,496 Z M1242.11914,426.041016 L1242.11914,469.155273 L1256.06445,469.155273 L1256.06445,426.041016 L1242.11914,426.041016 Z M1264.78027,496 L1261.29395,482.170898 C1259.12466,485.57977 1256.25816,488.601224 1252.69434,491.235352 C1250.9899,492.397467 1249.20802,493.520828 1247.34863,494.605469 C1245.3343,495.69011 1243.08758,496.658524 1240.6084,497.510742 C1238.12922,498.36296 1235.35955,499.04085 1232.29932,499.544434 C1229.23908,500.048017 1225.88836,500.299805 1222.24707,500.299805 C1213.72489,500.299805 1206.50052,499.466968 1200.57373,497.80127 C1194.64694,496.135571 1189.74676,493.946954 1185.87305,491.235352 C1181.99933,488.523749 1178.99724,485.405454 1176.8667,481.880371 C1174.73615,478.355288 1173.14795,474.714049 1172.10205,470.956543 C1171.05615,467.199037 1170.43636,463.480324 1170.24268,459.800293 C1170.04899,456.120262 1169.95215,452.73081 1169.95215,449.631836 C1169.95215,446.377913 1170.04899,442.852884 1170.24268,439.056641 C1170.43636,435.260398 1171.05615,431.444843 1172.10205,427.609863 C1173.14795,423.774883 1174.73615,420.094907 1176.8667,416.569824 C1178.99724,413.044741 1181.99933,409.907078 1185.87305,407.156738 C1189.74676,404.406399 1194.64694,402.217782 1200.57373,400.59082 C1206.50052,398.963859 1213.72489,398.150391 1222.24707,398.150391 C1226.74058,398.150391 1230.76919,398.363442 1234.33301,398.789551 C1237.89683,399.21566 1241.05386,399.77734 1243.8042,400.474609 C1246.55454,401.171878 1248.93684,401.927242 1250.95117,402.740723 C1252.9655,403.554203 1254.66991,404.348303 1256.06445,405.123047 L1256.06445,371.770508 L1247.46484,371.770508 L1247.46484,388.15625 L1176.22754,392.107422 C1176.22754,390.945307 1176.21664,389.761415 1176.19485,388.555727 L1176.16943,387.342773 C1176.1307,385.715812 1176.11133,384.088875 1176.11133,382.461914 C1176.11133,379.130517 1176.40185,375.741065 1176.98291,372.293457 C1177.56397,368.845849 1178.74543,365.553238 1180.52734,362.415527 C1182.30925,359.277816 1184.86587,356.333835 1188.19727,353.583496 C1191.52866,350.833157 1195.964,348.450856 1201.50342,346.436523 C1207.04283,344.42219 1213.80237,342.83399 1221.78223,341.671875 C1229.76208,340.50976 1239.33002,339.928711 1250.48633,339.928711 C1263.50202,339.928711 1274.44511,340.62597 1283.31592,342.020508 C1292.18673,343.415046 1299.48858,345.274402 1305.22168,347.598633 C1310.95478,349.922863 1315.37075,352.615056 1318.46973,355.675293 C1321.5687,358.73553 1323.83479,361.950667 1325.26807,365.320801 C1326.70134,368.690935 1327.53418,372.099755 1327.7666,375.547363 C1327.99902,378.994972 1328.11523,382.268214 1328.11523,385.367188 L1328.11523,466.133789 C1328.11523,469.852558 1328.40576,473.455061 1328.98682,476.941406 C1329.51945,480.137223 1330.13346,483.0726 1330.82884,485.74761 L1331.02051,486.470703 C1331.87273,489.8021 1332.87988,492.978501 1334.04199,496 L1264.78027,496 Z" id="Saavedra" fill="#444444" fill-rule="nonzero"></path>
    </g>
</svg>