<?xml version="1.0" encoding="UTF-8"?>
<svg width="88px" height="88px" viewBox="0 0 88 88" version="1.1" xmlns="http://www.w3.org/2000/svg" xmlns:xlink="http://www.w3.org/1999/xlink">
    <!-- Generator: Sketch 59.1 (86144) - https://sketch.com -->
    <title>Artboard</title>
    <desc>Created with Sketch.</desc>
    <g id="Artboard" stroke="none" stroke-width="1" fill="none" fill-rule="evenodd">
        <g id="github" transform="translate(0.000000, 3.000000)" fill="#000000" fill-rule="nonzero">
            <path d="M44,0 C19.69,0 0,19.0536282 0,42.5531029 C0,61.3577348 12.606,77.3043225 30.085,82.9265863 C32.285,83.3271455 33.0916667,82.0099913 33.0916667,80.8804864 C33.0916667,79.8700668 33.055,77.1924546 33.0366667,73.6451598 C20.7973333,76.2109041 18.216,67.9362887 18.216,67.9362887 C16.214,63.0249273 13.321,61.7113817 13.321,61.7113817 C9.33533333,59.0734646 13.629,59.1275943 13.629,59.1275943 C18.0473333,59.4235029 20.3683333,63.5120939 20.3683333,63.5120939 C24.2916667,70.0184749 30.668,68.1383726 33.1833333,67.0521714 C33.5793333,64.2987778 34.7123333,62.4258928 35.97,61.3613435 C26.1983333,60.2967942 15.928,56.6376315 15.928,40.3337883 C15.928,35.6894664 17.633,31.8931754 20.4563333,28.9160459 C19.9613333,27.8406707 18.4763333,23.5139093 20.8413333,17.6534752 C20.8413333,17.6534752 24.5263333,16.5131444 32.9413333,22.016323 C36.4613333,21.0708589 40.2013333,20.6017355 43.9413333,20.5800836 C47.6813333,20.6017355 51.4213333,21.0708589 54.9413333,22.016323 C63.3013333,16.5131444 66.9863333,17.6534752 66.9863333,17.6534752 C69.3513333,23.5139093 67.8663333,27.8406707 67.4263333,28.9160459 C70.2313333,31.8931754 71.9363333,35.6894664 71.9363333,40.3337883 C71.9363333,56.6809352 61.6513333,60.278751 51.8613333,61.3252571 C53.4013333,62.6027162 54.8313333,65.2117642 54.8313333,69.1993133 C54.8313333,74.8937499 54.7763333,79.4695075 54.7763333,80.8516173 C54.7763333,81.9666876 55.5463333,83.2982764 57.8013333,82.8724567 C75.405,77.2862793 88,61.3288657 88,42.5531029 C88,19.0536282 68.299,0 44,0 L44,0 Z" id="Path"></path>
        </g>
    </g>
</svg>