<?xml version="1.0" encoding="UTF-8"?>
<svg width="88px" height="88px" viewBox="0 0 88 88" version="1.1" xmlns="http://www.w3.org/2000/svg" xmlns:xlink="http://www.w3.org/1999/xlink">
    <!-- Generator: Sketch 59.1 (86144) - https://sketch.com -->
    <title>Artboard</title>
    <desc>Created with Sketch.</desc>
    <g id="Artboard" stroke="none" stroke-width="1" fill="none" fill-rule="evenodd">
        <g id="Artboard-1" transform="translate(-26.000000, -5.121563)">
            <path d="M76,48.1219848 C76,61.9289056 64.8069716,73.121563 51.0004247,73.121563 C37.1938777,73.121563 26,61.9289056 26,48.1219848 C26,34.3150641 37.1930284,23.121563 51.0004247,23.121563 C64.807821,23.121563 76,34.3150641 76,48.1219848" id="Path" fill="#000000" fill-rule="nonzero"></path>
            <path d="M103,48.121563 C103,61.3740361 97.1797241,72.121563 90,72.121563 C82.8202759,72.121563 77,61.3740361 77,48.121563 C77,34.8690899 82.8193925,24.121563 89.9991167,24.121563 C97.1788408,24.121563 102.999117,34.8656491 102.999117,48.121563" id="Path" fill="#000000" fill-rule="nonzero"></path>
            <path d="M114,47.621563 C114,59.492412 111.985412,69.121563 109.499565,69.121563 C107.013718,69.121563 105,59.4949927 105,47.621563 C105,35.7481334 107.014588,26.121563 109.499565,26.121563 C111.984543,26.121563 114,35.7472732 114,47.621563" id="Path" fill="#000000" fill-rule="nonzero"></path>
            <path d="M139,0.121563032 L113.791856,0.121563032 L113.791856,0.142640641 L25.2081444,0.142640641 L25.2081444,0.121563032 L0,0.121563032 L0,97.0844664 L10.1678266,97.0844664 L10.1678266,97.121563 L130.164515,97.121563 L130.164515,97.0844664 L139,97.0844664 L139,0.121563032 Z M113.791856,25.1229798 L113.791856,72.1403808 L25.2081444,72.1403808 L25.2081444,25.1229798 L113.791856,25.1229798 Z" id="Shape"></path>
        </g>
    </g>
</svg>