<?xml version="1.0" encoding="UTF-8"?>
<svg width="88px" height="88px" viewBox="0 0 88 88" version="1.1" xmlns="http://www.w3.org/2000/svg" xmlns:xlink="http://www.w3.org/1999/xlink">
    <!-- Generator: Sketch 59.1 (86144) - https://sketch.com -->
    <title>Artboard</title>
    <desc>Created with Sketch.</desc>
    <g id="Artboard" stroke="none" stroke-width="1" fill="none" fill-rule="evenodd">
        <g id="My-icons-collection-SVG-sprite" transform="translate(0.000000, 9.000000)" fill="#000000" fill-rule="nonzero">
            <g id="twitter" transform="translate(0.000000, 0.200000)">
                <path d="M88,8.28692308 C84.7275,9.69230769 81.2405,10.6238462 77.605,11.0761538 C81.345,8.89 84.1995,5.45461538 85.5415,1.31384615 C82.0545,3.34923077 78.2045,4.78692308 74.1015,5.58923077 C70.7905,2.13769231 66.0715,0 60.9235,0 C50.9355,0 42.8945,7.93692308 42.8945,17.6669231 C42.8945,19.0669231 43.0155,20.4130769 43.3125,21.6946154 C28.314,20.9784615 15.0425,13.9407692 6.127,3.22 C4.5705,5.86384615 3.6575,8.89 3.6575,12.1476923 C3.6575,18.2646154 6.875,23.6869231 11.671,26.8261538 C8.7725,26.7723077 5.929,25.9484615 3.52,24.6507692 C3.52,24.7046154 3.52,24.7746154 3.52,24.8446154 C3.52,33.4276923 9.7735,40.5569231 17.974,42.1992308 C16.5055,42.5923077 14.905,42.7807692 13.244,42.7807692 C12.089,42.7807692 10.923,42.7161538 9.8285,42.4792308 C12.166,49.4738462 18.799,54.6161538 26.686,54.7830769 C20.548,59.4838462 12.7545,62.3161538 4.3175,62.3161538 C2.838,62.3161538 1.419,62.2515385 0,62.0738462 C7.9915,67.1192308 17.4625,70 27.676,70 C60.874,70 79.024,43.0769231 79.024,19.74 C79.024,18.9592308 78.9965,18.2053846 78.958,17.4569231 C82.5385,14.9692308 85.547,11.8623077 88,8.28692308 Z" id="Path"></path>
            </g>
        </g>
    </g>
</svg>